<svg width="17" height="18" viewBox="0 0 17 18" fill="none" xmlns="http://www.w3.org/2000/svg">
<path d="M6.83331 14V4C6.83331 3.22343 6.83331 2.83515 6.70645 2.52886C6.53729 2.12048 6.21283 1.79602 5.80445 1.62687C5.49817 1.5 5.10988 1.5 4.33331 1.5C3.55674 1.5 3.16846 1.5 2.86217 1.62687C2.45379 1.79602 2.12934 2.12048 1.96018 2.52886C1.83331 2.83515 1.83331 3.22343 1.83331 4V14C1.83331 14.7766 1.83331 15.1649 1.96018 15.4711C2.12934 15.8795 2.45379 16.204 2.86217 16.3731C3.16846 16.5 3.55674 16.5 4.33331 16.5C5.10988 16.5 5.49817 16.5 5.80445 16.3731C6.21283 16.204 6.53729 15.8795 6.70645 15.4711C6.83331 15.1649 6.83331 14.7766 6.83331 14Z" stroke="#0B62FB" stroke-width="2" stroke-linecap="round" stroke-linejoin="round"/>
<path d="M15.1666 14V7.33333C15.1666 6.55676 15.1666 6.16848 15.0398 5.86219C14.8706 5.45381 14.5462 5.12936 14.1378 4.9602C13.8315 4.83333 13.4432 4.83333 12.6666 4.83333C11.8901 4.83333 11.5018 4.83333 11.1955 4.9602C10.7871 5.12936 10.4627 5.45381 10.2935 5.86219C10.1666 6.16848 10.1666 6.55676 10.1666 7.33333V14C10.1666 14.7766 10.1666 15.1649 10.2935 15.4711C10.4627 15.8795 10.7871 16.204 11.1955 16.3731C11.5018 16.5 11.8901 16.5 12.6666 16.5C13.4432 16.5 13.8315 16.5 14.1378 16.3731C14.5462 16.204 14.8706 15.8795 15.0398 15.4711C15.1666 15.1649 15.1666 14.7766 15.1666 14Z" stroke="#0B62FB" stroke-width="2" stroke-linecap="round" stroke-linejoin="round"/>
</svg>
